{
  "accessors": [
    {
      "bufferView": 2,
      "componentType": 5126,
      "count": 278,
      "max": [
        0.20843859016895294,
        0.20843859016895294,
        0.27187442779541016
      ],
      "min": [
        -0.20843859016895294,
        -0.20843859016895294,
        0.0
      ],
      "type": "VEC3"
    },
    {
      "bufferView": 2,
      "byteOffset": 3336,
      "componentType": 5126,
      "count": 278,
      "type": "VEC3"
    },
    {
      "bufferView": 3,
      "componentType": 5126,
      "count": 278,
      "type": "VEC4"
    },
    {
      "bufferView": 1,
      "componentType": 5126,
      "count": 278,
      "type": "VEC2"
    },
    {
      "bufferView": 1,
      "byteOffset": 2224,
      "componentType": 5126,
      "count": 278,
      "type": "VEC2"
    },
    {
      "bufferView": 1,
      "byteOffset": 4448,
      "componentType": 5126,
      "count": 278,
      "type": "VEC2"
    },
    {
      "bufferView": 0,
      "componentType": 5125,
      "count": 816,
      "type": "SCALAR"
    },
    {
      "bufferView": 2,
      "byteOffset": 6672,
      "componentType": 5126,
      "count": 237,
      "max": [
        0.38210123777389526,
        0.3899127244949341,
        0.279800146818161
      ],
      "min": [
        -0.396817684173584,
        -0.40539994835853577,
        -0.05176335573196411
      ],
      "type": "VEC3"
    },
    {
      "bufferView": 2,
      "byteOffset": 9516,
      "componentType": 5126,
      "count": 237,
      "type": "VEC3"
    },
    {
      "bufferView": 3,
      "byteOffset": 4448,
      "componentType": 5126,
      "count": 237,
      "type": "VEC4"
    },
    {
      "bufferView": 1,
      "byteOffset": 6672,
      "componentType": 5126,
      "count": 237,
      "type": "VEC2"
    },
    {
      "bufferView": 0,
      "byteOffset": 3264,
      "componentType": 5125,
      "count": 780,
      "type": "SCALAR"
    },
    {
      "bufferView": 2,
      "byteOffset": 12360,
      "componentType": 5126,
      "count": 118,
      "max": [
        0.06351440399885178,
        0.1452648937702179,
        0.2549978792667389
      ],
      "min": [
        -0.07714218646287918,
        -0.06512835621833801,
        0.02252170443534851
      ],
      "type": "VEC3"
    },
    {
      "bufferView": 2,
      "byteOffset": 13776,
      "componentType": 5126,
      "count": 118,
      "type": "VEC3"
    },
    {
      "bufferView": 3,
      "byteOffset": 8240,
      "componentType": 5126,
      "count": 118,
      "type": "VEC4"
    },
    {
      "bufferView": 1,
      "byteOffset": 8568,
      "componentType": 5126,
      "count": 118,
      "type": "VEC2"
    },
    {
      "bufferView": 0,
      "byteOffset": 6384,
      "componentType": 5125,
      "count": 216,
      "type": "SCALAR"
    }
  ],
  "asset": {
    "generator": "fab-model-conversion",
    "version": "2.0"
  },
  "bufferViews": [
    {
      "buffer": 0,
      "byteLength": 7248,
      "target": 34963
    },
    {
      "buffer": 0,
      "byteLength": 9512,
      "byteOffset": 7248,
      "byteStride": 8,
      "target": 34962
    },
    {
      "buffer": 0,
      "byteLength": 15192,
      "byteOffset": 16760,
      "byteStride": 12,
      "target": 34962
    },
    {
      "buffer": 0,
      "byteLength": 10128,
      "byteOffset": 31952,
      "byteStride": 16,
      "target": 34962
    }
  ],
  "buffers": [
    {
      "byteLength": 42080,
      "uri": "scene.bin"
    }
  ],
  "images": [
    {
      "uri": "textures/Plantpot_MAT_baseColor.png"
    },
    {
      "uri": "textures/Plantpot_MAT_metallicRoughness.png"
    },
    {
      "uri": "textures/Plantpot_MAT_normal.png"
    },
    {
      "uri": "textures/Foliage_MAT_baseColor.png"
    },
    {
      "uri": "textures/Foliage_MAT_metallicRoughness.png"
    },
    {
      "uri": "textures/Foliage_MAT_normal.png"
    }
  ],
  "materials": [
    {
      "name": "Plantpot_MAT",
      "normalTexture": {
        "index": 2
      },
      "pbrMetallicRoughness": {
        "baseColorTexture": {
          "index": 0
        },
        "metallicRoughnessTexture": {
          "index": 1
        }
      }
    },
    {
      "alphaMode": "BLEND",
      "doubleSided": true,
      "name": "Foliage_MAT",
      "normalTexture": {
        "index": 5
      },
      "pbrMetallicRoughness": {
        "baseColorTexture": {
          "index": 3
        },
        "metallicRoughnessTexture": {
          "index": 4
        }
      }
    }
  ],
  "meshes": [
    {
      "name": "FlowerPot_Plantpot_MAT_0",
      "primitives": [
        {
          "attributes": {
            "NORMAL": 1,
            "POSITION": 0,
            "TANGENT": 2,
            "TEXCOORD_0": 3,
            "TEXCOORD_1": 4,
            "TEXCOORD_2": 5
          },
          "indices": 6,
          "material": 0,
          "mode": 4
        }
      ]
    },
    {
      "name": "Plants_Foliage_MAT_0",
      "primitives": [
        {
          "attributes": {
            "NORMAL": 8,
            "POSITION": 7,
            "TANGENT": 9,
            "TEXCOORD_0": 10
          },
          "indices": 11,
          "material": 1,
          "mode": 4
        }
      ]
    },
    {
      "name": "Flowers_Foliage_MAT_0",
      "primitives": [
        {
          "attributes": {
            "NORMAL": 13,
            "POSITION": 12,
            "TANGENT": 14,
            "TEXCOORD_0": 15
          },
          "indices": 16,
          "material": 1,
          "mode": 4
        }
      ]
    }
  ],
  "nodes": [
    {
      "children": [
        1
      ],
      "matrix": [
        1.0,
        0.0,
        0.0,
        0.0,
        0.0,
        2.220446049250313e-16,
        -1.0,
        0.0,
        0.0,
        1.0,
        2.220446049250313e-16,
        0.0,
        0.0,
        0.0,
        0.0,
        1.0
      ],
      "name": "Sketchfab_model"
    },
    {
      "children": [
        2
      ],
      "matrix": [
        1.0,
        0.0,
        0.0,
        0.0,
        0.0,
        0.0,
        1.0,
        0.0,
        0.0,
        -1.0,
        0.0,
        0.0,
        0.0,
        0.0,
        0.0,
        1.0
      ],
      "name": "b9f3e21a4ef9447f96443e06ffce729b.fbx"
    },
    {
      "children": [
        3,
        5,
        7
      ],
      "name": "RootNode"
    },
    {
      "children": [
        4
      ],
      "matrix": [
        100.0,
        0.0,
        0.0,
        0.0,
        0.0,
        -1.629206793918314e-05,
        -99.99999999999868,
        0.0,
        0.0,
        99.99999999999868,
        -1.629206793918314e-05,
        0.0,
        0.0,
        0.0,
        0.0,
        1.0
      ],
      "name": "FlowerPot"
    },
    {
      "mesh": 0,
      "name": "FlowerPot_Plantpot_MAT_0"
    },
    {
      "children": [
        6
      ],
      "matrix": [
        100.0,
        0.0,
        0.0,
        0.0,
        0.0,
        -1.629206793918314e-05,
        -99.99999999999868,
        0.0,
        0.0,
        99.99999999999868,
        -1.629206793918314e-05,
        0.0,
        7.352836064455914e-07,
        20.844972610473633,
        2.5222593080798106e-07,
        1.0
      ],
      "name": "Plants"
    },
    {
      "mesh": 1,
      "name": "Plants_Foliage_MAT_0"
    },
    {
      "children": [
        8
      ],
      "matrix": [
        100.0,
        0.0,
        0.0,
        0.0,
        0.0,
        -1.629206793918314e-05,
        -99.99999999999868,
        0.0,
        0.0,
        99.99999999999868,
        -1.629206793918314e-05,
        0.0,
        7.352836064455914e-07,
        20.844972610473633,
        2.5222593080798106e-07,
        1.0
      ],
      "name": "Flowers"
    },
    {
      "mesh": 2,
      "name": "Flowers_Foliage_MAT_0"
    }
  ],
  "samplers": [
    {
      "magFilter": 9729,
      "minFilter": 9987,
      "wrapS": 10497,
      "wrapT": 10497
    }
  ],
  "scene": 0,
  "scenes": [
    {
      "name": "Sketchfab_Scene",
      "nodes": [
        0
      ]
    }
  ],
  "textures": [
    {
      "sampler": 0,
      "source": 0
    },
    {
      "sampler": 0,
      "source": 1
    },
    {
      "sampler": 0,
      "source": 2
    },
    {
      "sampler": 0,
      "source": 3
    },
    {
      "sampler": 0,
      "source": 4
    },
    {
      "sampler": 0,
      "source": 5
    }
  ]
}
